# xmcd
#
# Track frame offsets: 
#        150
#        19305
#        39334
#        57889
#        71444
#        89826
#        111100
#        126013
#        143469
#        160299
#
# Disc length: 2359 seconds
#
# Revision: 0
# Processed by: cddbd v1.5.2PL0 Copyright (c) Steve Scherf et al.
# Submitted via: ExactAudioCopyFreeDBPlugin 1.0
#
DISCID=8309350a
DTITLE=Γιώργος Μαζωνάκης - Τα Όχι and Τα Ναι Mου
DYEAR=2007
DGENRE=Pop
TTITLE0=Μ' Ενοχλεί Ο Εαυτός Μου
TTITLE1=Σαν Δυο Σταγόνες Βροχής
TTITLE2=Έχω Νευριάσει
TTITLE3=Είσαι Υπεύθυνη Για Μένα
TTITLE4=Στην Πράξη
TTITLE5=Σ' Έχω Επιθυμήσει
TTITLE6=Θα Σου Δαγκώσουν Την Ψυχή Τα Δυο Μου Χείλη
TTITLE7=Έννοια Σου
TTITLE8=Δώσε Μου Λίγο Χρόνο
TTITLE9=Όνειρα
EXTD=
EXTT0=
EXTT1=
EXTT2=
EXTT3=
EXTT4=
EXTT5=
EXTT6=
EXTT7=
EXTT8=
EXTT9=
PLAYORDER=
